<?xml version="1.0"?>
<!DOCTYPE svg PUBLIC "-//W3C//DTD SVG 1.1//EN"
"http://www.w3.org/Graphics/SVG/1.1/DTD/svg11.dtd">

<svg version="1.1" xmlns="http://www.w3.org/2000/svg"
xmlns:xlink="http://www.w3.org/1999/xlink"
width="600px" height="600px"
viewBox="0 0 4 4"
preserveAspectRatio="xMidYMid">
<defs>
<g id ="polygon" fill="white" stroke-width="0.01" stroke="black">
<polygon points ="1,0.05 1.44,0.16 1.78,0.48 1.95,0.89 1.89,1.35 1.64,1.72 1.23,1.94 0.77,1.94 0.36,1.72 0.11,1.35 0.05,0.89 0.22,0.48 0.56,0.16 1,0.05 " />
<line x1="1" y1="1" x2="1" y2="0.05" />
<line x1="1" y1="1" x2="1.44" y2="0.16" />
<line x1="1" y1="1" x2="1.78" y2="0.48" />
<line x1="1" y1="1" x2="1.95" y2="0.89" />
<line x1="1" y1="1" x2="1.89" y2="1.35" />
<line x1="1" y1="1" x2="1.64" y2="1.72" />
<line x1="1" y1="1" x2="1.23" y2="1.94" />
<line x1="1" y1="1" x2="0.77" y2="1.94" />
<line x1="1" y1="1" x2="0.36" y2="1.72" />
<line x1="1" y1="1" x2="0.11" y2="1.35" />
<line x1="1" y1="1" x2="0.05" y2="0.89" />
<line x1="1" y1="1" x2="0.22" y2="0.48" />
<line x1="1" y1="1" x2="0.56" y2="0.16" />

<animateTransform attributeName="transform" type="rotate" from="0 1 1" to="360 1 1" dur="10s" repeatCount="indefinite" />
</g>
<g id ="triangle" stroke-width="0.01" stroke="black">
<polygon points="2,3.5 2.4,0.55 3,3.5"/>
</g>
<g id="line" stroke-width="0.2" stroke="red" >
<line x1="0.90" y1="0.95"  x2="5.60" y2="1.95" />
</g>
</defs>
<!--1-->
<use xlink:href="#polygon" transform="scale(0.2,0.2) translate(12.5,0.5)" />
<use xlink:href="#polygon" transform="scale(0.2,0.2) translate(17,1.4)" />
<use xlink:href="#line" transform="scale(0.2,0.2) translate(12.5,0.5)" />
<use xlink:href="#triangle" fill="green" transform="scale(0.2,0.2) translate(13.3,1.4)" /> 

<!--2-->
<use xlink:href="#polygon" transform="scale(0.3,0.3) translate(0.5,0.5)" />
<use xlink:href="#polygon" transform="scale(0.3,0.3) translate(5,1.4)" />
<use xlink:href="#line" transform="scale(0.3,0.3) translate(0.5,0.5)" />
<use xlink:href="#triangle" fill="purple" transform="scale(0.3,0.3) translate(1.3,1.4)" /> 

<!--3-->
<use xlink:href="#polygon" transform="scale(0.35,0.35) translate(4,3.5)" />
<use xlink:href="#polygon" transform="scale(0.35,0.35) translate(8.5,4.4)" />
<use xlink:href="#line" transform="scale(0.35,0.35) translate(4,3.5)" />
<use xlink:href="#triangle" fill="blue" transform="scale(0.35,0.35) translate(4.8,4.4)" />

</svg>
